<svg xmlns="http://www.w3.org/2000/svg" viewBox="0 0 171.3 168.64"><defs><style>.cls-1{fill:#0072aa;}.cls-2{fill:#339ccc;}.cls-3,.cls-4{fill:#fff;}.cls-4{fill-rule:evenodd;}</style></defs><g id="Layer_2" data-name="Layer 2"><g id="Layer_8" data-name="Layer 8"><path class="cls-1" d="M129.38,43.71h25.84A9.55,9.55,0,0,1,161.43,46,86,86,0,0,0,85.3,0V32.22A53.56,53.56,0,0,1,122.21,47,9.54,9.54,0,0,1,129.38,43.71Z"/><rect class="cls-2" x="125.15" y="49.08" width="34.31" height="34.31" rx="4.24"/><path class="cls-3" d="M135.91,78a.83.83,0,0,1-.82-.77l-.87-16.18a.81.81,0,0,1,.22-.59.79.79,0,0,1,.56-.27h0a.82.82,0,0,1,.85.77l.83,15.42h12.65L150.15,61a.8.8,0,1,1,1.6.08l-.87,16.18a.82.82,0,0,1-.81.77Zm9.37-3.92a.64.64,0,0,1-.48-.21.67.67,0,0,1-.19-.5l.28-12.11a.68.68,0,1,1,1.35.05L146,73.44A.69.69,0,0,1,145.28,74.12Zm-4.62,0a.71.71,0,0,1-.67-.7l-.28-12.13a.66.66,0,0,1,.18-.49.63.63,0,0,1,.47-.2.69.69,0,0,1,.7.67l.28,12.1A.75.75,0,0,1,140.66,74.12Zm-8.59-16a.81.81,0,0,1,0-1.62h6.47V53.71a.51.51,0,0,1,.58-.53h7.73a.52.52,0,0,1,.59.53v2.83h6.47a.81.81,0,0,1,0,1.62Zm7.81-1.62h6.21v-2h-6.21Z"/><rect class="cls-2" x="86.39" y="88.28" width="34.31" height="34.31" rx="4.24"/><g id="Page-1"><g id="Artboard"><g id="save"><path class="cls-3" d="M112.29,116.53H95.67a3.15,3.15,0,0,1-3.14-3.14V96.77a3.15,3.15,0,0,1,3.14-3.14h13.06a.73.73,0,0,1,.54.23l5.94,5.93a.79.79,0,0,1,.22.54v13.06A3.14,3.14,0,0,1,112.29,116.53ZM95.67,95.17a1.6,1.6,0,0,0-1.6,1.6v16.62a1.61,1.61,0,0,0,1.6,1.61h16.62a1.61,1.61,0,0,0,1.61-1.61V100.65l-5.49-5.48Z"/><path class="cls-3" d="M109.92,116.53a.77.77,0,0,1-.77-.76V107H98.82v8.73a.77.77,0,0,1-1.54,0v-9.5a.78.78,0,0,1,.77-.77h11.87a.78.78,0,0,1,.77.77v9.5A.77.77,0,0,1,109.92,116.53Z"/><path class="cls-3" d="M107.54,101.1H98.05a.77.77,0,0,1-.77-.77V94.4a.77.77,0,0,1,1.54,0v5.17h8.72a.77.77,0,1,1,0,1.53Z"/></g></g></g><rect class="cls-2" x="47.47" y="49.16" width="34.51" height="34.51" rx="4.24"/><path class="cls-3" d="M58.49,78.43a3.29,3.29,0,0,1-3.28-3.28V66.42a3.28,3.28,0,0,1,3.28-3.28H59v-3a5.77,5.77,0,1,1,11.54,0v3H71a3.28,3.28,0,0,1,3.28,3.28v8.73A3.29,3.29,0,0,1,71,78.43Zm0-13.72a1.72,1.72,0,0,0-1.71,1.71v8.73a1.71,1.71,0,0,0,1.71,1.7H71a1.7,1.7,0,0,0,1.71-1.7V66.42A1.71,1.71,0,0,0,71,64.71ZM64.72,56a4.21,4.21,0,0,0-4.2,4.2v3h8.4v-3A4.2,4.2,0,0,0,64.72,56Zm0,17.45a.79.79,0,0,1-.79-.79V70.71l-.15-.14a1.39,1.39,0,0,1-.48-1.06,1.41,1.41,0,1,1,2.36,1.06l-.15.14v1.94A.79.79,0,0,1,64.72,73.44Z"/><rect class="cls-2" x="9.49" y="87.53" width="34.31" height="34.31" rx="4.24"/><rect class="cls-2" x="9.79" y="87.84" width="33.69" height="33.69" rx="3.93" transform="translate(131.32 78.04) rotate(90)"/><g id="Page-1-2" data-name="Page-1"><g id="Dribbble-Light-Preview"><g id="icons"><path class="cls-4" d="M15.13,115.81a11.09,11.09,0,0,1,7.17-10.43l.51-.19-.42-.34a6.78,6.78,0,1,1,8.5,0l-.42.34.5.19a11.09,11.09,0,0,1,7.18,10.43Zm11.51-9.46a9.28,9.28,0,0,0-9.5,7.34l-.08.37H36.22l-.08-.37A9.28,9.28,0,0,0,26.64,106.35Zm0-11.81a5,5,0,1,0,5,5A5,5,0,0,0,26.64,94.54Z"/></g></g></g><rect class="cls-1" x="39.38" y="12.39" width="26.23" height="26.23" rx="5"/><rect class="cls-1" x="9.62" y="46.86" width="22.24" height="22.24" rx="4.24"/><rect class="cls-1" x="51.88" y="91.27" width="16.59" height="16.59" rx="4.24"/><path class="cls-2" d="M127.83,135.11a.28.28,0,0,1,.27.27V165.9a.28.28,0,0,1-.27.27H28.76a.28.28,0,0,1-.27-.27V135.38a.28.28,0,0,1,.27-.27h99.07m0-2.47H28.76A2.75,2.75,0,0,0,26,135.38V165.9a2.76,2.76,0,0,0,2.75,2.74h99.07a2.75,2.75,0,0,0,2.74-2.74V135.38a2.74,2.74,0,0,0-2.74-2.74Z"/><path class="cls-1" d="M171.3,86a85.65,85.65,0,0,0-6.48-32.77V79.15a9.62,9.62,0,0,1-9.6,9.6H139a53.71,53.71,0,0,1-19.28,38.52h7.52a8.7,8.7,0,0,1,8.69,8.69v19.53A85.85,85.85,0,0,0,171.3,86Z"/><path class="cls-2" d="M53.42,157.13h8.1v2.47H50.31V141.76h3.11Z"/><path class="cls-2" d="M77.57,157.29a5.92,5.92,0,0,1-2.69,1.91,11,11,0,0,1-3.89.65,7.64,7.64,0,0,1-4-1,6.79,6.79,0,0,1-2.67-2.91,10.17,10.17,0,0,1-1-4.42v-1.39a9.45,9.45,0,0,1,1.93-6.32,6.74,6.74,0,0,1,5.41-2.27A7.14,7.14,0,0,1,75.45,143a6.38,6.38,0,0,1,2.11,4.25h-3A3.42,3.42,0,0,0,70.78,144a3.66,3.66,0,0,0-3.17,1.5,7.61,7.61,0,0,0-1.12,4.4v1.37a7.31,7.31,0,0,0,1.22,4.49,4,4,0,0,0,3.39,1.59,4.46,4.46,0,0,0,3.38-1.08V152.8H70.8v-2.35h6.77Z"/><path class="cls-2" d="M84.07,153v6.61H81V141.76H87.8a6.92,6.92,0,0,1,4.75,1.56,5.24,5.24,0,0,1,1.76,4.12,5.08,5.08,0,0,1-1.73,4.09A7.23,7.23,0,0,1,87.76,153Zm0-2.5H87.8a3.66,3.66,0,0,0,2.52-.78,2.87,2.87,0,0,0,.87-2.25,3.09,3.09,0,0,0-.88-2.31,3.41,3.41,0,0,0-2.43-.89H84.07Z"/><path class="cls-2" d="M97,159.6V141.76h5.27a8.19,8.19,0,0,1,4.2,1.06,7.19,7.19,0,0,1,2.84,3,9.48,9.48,0,0,1,1,4.43v.9a9.52,9.52,0,0,1-1,4.46,7,7,0,0,1-2.88,3,8.59,8.59,0,0,1-4.28,1Zm3.1-15.34v12.87h2a4.65,4.65,0,0,0,3.74-1.53,6.64,6.64,0,0,0,1.33-4.38v-1a6.85,6.85,0,0,0-1.26-4.44,4.5,4.5,0,0,0-3.67-1.53Z"/><rect class="cls-1" y="75.27" width="8.83" height="8.83" rx="3.31"/><rect class="cls-1" x="68.83" y="118.18" width="8.83" height="8.83" rx="3.31"/><rect class="cls-1" x="70.32" y="3.05" width="8.83" height="8.83" rx="3.31"/><rect class="cls-1" x="51.61" y="119.04" width="5.3" height="5.3" rx="2.01"/><rect class="cls-1" x="72.08" y="32.15" width="5.3" height="5.3" rx="2.01"/><rect class="cls-1" x="36.89" y="44.47" width="5.3" height="5.3" rx="2.01"/><rect class="cls-1" x="31.86" y="75.81" width="5.3" height="5.3" rx="2.01"/><rect class="cls-1" x="20.1" y="30.85" width="9.79" height="9.79" rx="2.4"/><rect class="cls-2" x="37.5" y="82.44" width="16" height="5.99" transform="translate(-47.08 57.2) rotate(-45)"/><rect class="cls-2" x="76.33" y="82.44" width="16" height="5.99" transform="translate(85.11 -34.61) rotate(45)"/><rect class="cls-2" x="115.17" y="82.44" width="16" height="5.99" transform="translate(-24.34 112.11) rotate(-45)"/></g></g></svg>